<svg xmlns="http://www.w3.org/2000/svg" xmlns:xlink="http://www.w3.org/1999/xlink" width="1109" height="183" fill="none" viewBox="0 0 1109 183">
    <path fill="#476BB5" d="M0 0H1109V183H0z"/>
    <g clip-path="url(#prefix__clip0)">
        <path fill="#476BB5" d="M376 48h71.663v94H376V48z"/>
        <path fill="url(#prefix__pattern0)" d="M388 58H440V97H388z"/>
        <path fill="#fff" d="M399.001 133.073h-.391l-4.223-6.548-.025.005v6.079h.879V133h-2.295v-.391h.977v-6.313h-.977v-.391h2.183l3.408 5.283.025-.004v-4.888h-.977v-.391h2.393v.391h-.977v6.777zm4.119-2.368c0 .28.012.544.034.791.026.247.093.464.2.65.111.185.277.333.499.444.224.107.535.161.932.161.404 0 .729-.055.977-.166.247-.114.438-.269.571-.464.137-.198.228-.431.273-.698.046-.27.069-.562.069-.874v-4.253h-.977v-.391h2.388v.391h-.972v4.199c0 .436-.036.82-.107 1.152-.072.332-.2.611-.386.835-.185.225-.436.396-.752.513-.316.114-.718.171-1.206.171-.436 0-.812-.047-1.128-.142-.316-.094-.574-.24-.776-.439-.202-.199-.352-.451-.449-.757-.095-.309-.142-.675-.142-1.099v-4.433h-.977v-.391h2.906v.391h-.977v4.409zm8.157-1.582h.64c.218 0 .4-.008.547-.024.146-.017.264-.062.351-.137.092-.078.16-.197.206-.357.045-.162.078-.39.097-.683h.347v2.89h-.347c-.016-.296-.044-.528-.083-.698-.039-.172-.102-.302-.19-.39-.088-.088-.207-.144-.357-.166-.146-.023-.337-.035-.571-.035h-.64v3.086h1.294c.254 0 .477-.009.669-.029.192-.019.36-.055.503-.107.143-.052.265-.126.366-.22.105-.094.194-.217.269-.366.075-.15.138-.332.19-.547.052-.215.101-.469.147-.762h.342l-.098 2.422h-5.61v-.391h.976v-6.313h-.976v-.391h5.488l.098 1.958h-.342c-.049-.325-.109-.589-.181-.791-.072-.205-.172-.364-.303-.478-.127-.117-.294-.196-.503-.235-.205-.042-.465-.063-.781-.063h-1.548v2.827zm8.87 2.407h.02l1.958-5.234h-.977v-.391h2.33v.391h-.879l-2.539 6.777h-.386l-2.383-6.777h-.967v-.391h3.003v.391h-1.015l1.835 5.234zm4.227-2.011c0-.583.078-1.107.234-1.573.16-.465.381-.861.664-1.186.284-.329.621-.581 1.011-.757.394-.176.825-.264 1.294-.264.462 0 .882.087 1.26.259.381.169.706.412.976.728.271.315.479.698.625 1.147.15.449.225.952.225 1.509 0 .547-.073 1.053-.22 1.518-.143.463-.351.861-.625 1.197-.273.335-.608.597-1.006.786-.393.189-.839.283-1.337.283-.469 0-.894-.085-1.275-.254-.381-.169-.706-.412-.976-.727-.271-.316-.481-.699-.63-1.148-.147-.452-.22-.959-.22-1.518zm1.06-.03c0 .449.022.843.068 1.182.049.335.116.625.2.869.088.241.194.441.318.601.123.159.262.286.415.38.153.095.319.162.498.201.179.035.367.053.566.053.199 0 .387-.018.566-.053.183-.039.352-.106.508-.201.156-.097.298-.227.425-.39s.234-.368.322-.615c.091-.251.161-.547.21-.889.049-.345.074-.747.074-1.206 0-.449-.025-.842-.074-1.177-.045-.338-.112-.63-.2-.874-.085-.244-.189-.446-.312-.605-.124-.16-.262-.287-.415-.381-.15-.095-.315-.16-.494-.196-.179-.039-.367-.058-.566-.058-.199 0-.389.019-.571.058-.183.04-.352.106-.508.201-.156.094-.298.224-.425.39-.127.163-.236.368-.327.616-.088.247-.156.543-.205.888-.049.345-.073.747-.073 1.206z"/>
    </g>
    <g clip-path="url(#prefix__clip1)">
        <path fill="#476BB5" d="M462.75 48h71.662v94H462.75V48z"/>
        <rect width="52" height="39" x="474.75" y="58" fill="url(#prefix__pattern1)" rx="5"/>
        <path fill="#fff" d="M478.077 132.712c-.156.078-.326.146-.508.205s-.366.106-.552.142c-.185.035-.369.061-.551.078-.183.019-.352.029-.508.029-.508 0-.962-.085-1.363-.254-.4-.169-.74-.41-1.02-.723-.277-.315-.488-.698-.635-1.147-.146-.449-.22-.955-.22-1.519 0-.576.08-1.097.24-1.562.159-.466.387-.863.683-1.191.296-.332.653-.586 1.07-.762.42-.179.888-.269 1.406-.269.296 0 .612.03.947.088.335.055.654.132.957.23l.059 1.782h-.342c-.029-.355-.094-.643-.195-.864-.101-.225-.227-.399-.376-.523-.15-.124-.321-.208-.513-.254-.189-.045-.389-.068-.601-.068-.221 0-.431.019-.63.058-.195.04-.377.108-.546.206-.17.097-.323.227-.459.39-.134.163-.249.37-.347.62-.094.251-.168.549-.22.894-.049.342-.073.74-.073 1.196 0 .449.023.843.068 1.182.049.335.118.623.205.864.092.241.201.441.328.601.13.159.275.284.434.376.16.091.334.156.523.195.188.036.389.054.6.054.209 0 .412-.009.611-.025.201-.019.393-.063.576-.132v-2.163h-1.075v-.39h2.906v.39h-.879v2.266zm4.222-2.007c0 .28.011.544.034.791.026.247.092.464.2.65.111.185.277.333.498.444.225.107.535.161.933.161.403 0 .729-.055.976-.166.248-.114.438-.269.571-.464.137-.198.228-.431.274-.698.045-.27.068-.562.068-.874v-4.253h-.976v-.391h2.387v.391h-.971v4.199c0 .436-.036.82-.108 1.152-.071.332-.2.611-.386.835-.185.225-.436.396-.751.513-.316.114-.718.171-1.207.171-.436 0-.812-.047-1.127-.142-.316-.094-.575-.24-.777-.439-.202-.199-.351-.451-.449-.757-.094-.309-.142-.675-.142-1.099v-4.433h-.976v-.391h2.905v.391h-.976v4.409zm7.898 1.904V133h-2.378v-.391h.928l2.539-6.777h.386l2.382 6.777h.967V133h-3.003v-.391h1.016l-.733-2.085h-2.304l-.777 2.085h.977zm.981-5.234l-1.03 2.754h2.017l-.967-2.754h-.02zm7.508-1.47c.518 0 .954.039 1.309.117.355.079.641.189.859.332.218.144.375.318.469.523.094.202.142.426.142.674 0 .215-.035.418-.103.61-.065.192-.164.366-.298.523-.133.156-.301.291-.503.405-.198.111-.433.195-.703.254v.019c.225.052.409.129.552.23.146.101.264.224.351.371.092.146.162.314.21.503.052.185.098.39.137.615.039.231.073.443.103.635.032.189.075.353.127.493.052.137.122.244.21.322.091.075.216.113.376.113.029 0 .07-.002.122-.005.055-.004.115-.01.18-.02v.376c-.055.013-.115.025-.18.034-.066.01-.132.017-.201.02-.065.006-.13.01-.195.01-.062.003-.117.004-.166.004-.283 0-.506-.029-.669-.087-.159-.062-.283-.157-.371-.284-.085-.127-.145-.286-.181-.478-.035-.192-.07-.42-.102-.684-.049-.384-.098-.706-.147-.967-.048-.26-.117-.468-.205-.625-.088-.159-.206-.271-.356-.336-.15-.069-.353-.103-.611-.103h-.918v3.11h1.026V133h-2.954v-.391h.976v-6.313h-.976v-.391h2.69zm-.762 3.203h.65c.351 0 .644-.029.879-.087.237-.059.428-.15.571-.274.147-.127.249-.286.308-.478.062-.196.092-.43.092-.704 0-.227-.024-.421-.073-.581-.049-.162-.14-.294-.273-.395-.13-.101-.313-.174-.547-.22-.231-.049-.532-.073-.903-.073h-.704v2.812zm5.541 3.892v-.391h.976v-6.313h-.976v-.391h2.949c.657 0 1.207.082 1.65.244.446.163.804.396 1.074.699.271.299.463.662.577 1.089.117.426.175.903.175 1.43 0 .306-.021.609-.063.908-.039.297-.109.58-.21.85-.101.267-.238.516-.41.747-.17.228-.386.427-.65.596-.263.166-.577.296-.942.39-.365.095-.789.142-1.274.142h-2.876zm1.928-.391h.884c.501 0 .916-.048 1.245-.146.332-.098.594-.269.786-.513.192-.244.327-.574.406-.991.078-.417.117-.944.117-1.582 0-.348-.013-.667-.039-.957-.023-.29-.067-.549-.132-.776-.065-.228-.156-.427-.274-.596-.114-.169-.262-.309-.444-.42-.179-.111-.397-.194-.654-.249-.257-.055-.56-.083-.908-.083h-.987v6.313zm7.845 0V133h-2.378v-.391h.928l2.539-6.777h.386l2.382 6.777h.967V133h-3.003v-.391h1.016l-.733-2.085h-2.304l-.777 2.085h.977zm.981-5.234l-1.03 2.754h2.017l-.967-2.754h-.02zm7.508-1.47c.518 0 .954.039 1.309.117.355.079.641.189.859.332.218.144.375.318.469.523.094.202.142.426.142.674 0 .215-.035.418-.103.61-.065.192-.164.366-.298.523-.133.156-.301.291-.503.405-.198.111-.433.195-.703.254v.019c.225.052.409.129.552.23.146.101.264.224.351.371.092.146.162.314.21.503.052.185.098.39.137.615.039.231.073.443.103.635.032.189.075.353.127.493.052.137.122.244.21.322.091.075.216.113.376.113.029 0 .07-.002.122-.005.055-.004.115-.01.18-.02v.376c-.055.013-.115.025-.18.034-.065.01-.132.017-.201.02-.065.006-.13.01-.195.01-.062.003-.117.004-.166.004-.283 0-.506-.029-.669-.087-.159-.062-.283-.157-.371-.284-.085-.127-.145-.286-.181-.478-.035-.192-.07-.42-.102-.684-.049-.384-.098-.706-.147-.967-.048-.26-.117-.468-.205-.625-.088-.159-.206-.271-.356-.336-.15-.069-.353-.103-.611-.103h-.917v3.11h1.025V133h-2.954v-.391h.976v-6.313h-.976v-.391h2.69zm-.761 3.203h.649c.351 0 .644-.029.879-.087.237-.059.428-.15.571-.274.147-.127.249-.286.308-.478.062-.196.093-.43.093-.704 0-.227-.025-.421-.074-.581-.049-.162-.14-.294-.273-.395-.13-.101-.313-.174-.547-.22-.231-.049-.532-.073-.903-.073h-.703v2.812z"/>
    </g>
    <g clip-path="url(#prefix__clip2)">
        <path fill="#476BB5" d="M556.1 48h71.663v94H556.1V48z"/>
        <path fill="#fff" d="M573.745 129.123h.64c.218 0 .4-.008.547-.024.146-.017.264-.062.351-.137.092-.078.16-.197.206-.357.045-.162.078-.39.097-.683h.347v2.89h-.347c-.016-.296-.044-.528-.083-.698-.039-.172-.102-.302-.19-.39-.088-.088-.207-.144-.357-.166-.146-.023-.337-.035-.571-.035h-.64v3.086h1.294c.254 0 .477-.009.669-.029.192-.019.36-.055.503-.107.143-.052.265-.126.366-.22.105-.094.194-.217.269-.366.075-.15.138-.332.19-.547.052-.215.101-.469.147-.762h.342l-.098 2.422h-5.61v-.391h.976v-6.313h-.976v-.391h5.488l.098 1.958h-.342c-.049-.325-.109-.589-.181-.791-.071-.205-.172-.364-.303-.478-.127-.117-.294-.196-.503-.235-.205-.042-.465-.063-.781-.063h-1.548v2.827zm5.511 3.877v-.391h.977v-6.313h-.977v-.391h2.949c.658 0 1.208.082 1.651.244.446.163.804.396 1.074.699.27.299.462.662.576 1.089.117.426.176.903.176 1.43 0 .306-.021.609-.064.908-.039.297-.109.58-.21.85-.1.267-.237.516-.41.747-.169.228-.385.427-.649.596-.264.166-.578.296-.943.39-.364.095-.789.142-1.274.142h-2.876zm1.929-.391h.884c.501 0 .916-.048 1.245-.146.332-.098.594-.269.786-.513.192-.244.327-.574.405-.991.078-.417.117-.944.117-1.582 0-.348-.013-.667-.039-.957-.023-.29-.066-.549-.132-.776-.065-.228-.156-.427-.273-.596-.114-.169-.262-.309-.444-.42-.179-.111-.397-.194-.655-.249-.257-.055-.56-.083-.908-.083h-.986v6.313zm8.152-6.313v6.313h.977V133h-2.906v-.391h.977v-6.313h-.977v-.391h2.906v.391h-.977zm2.532-.391h5.723l.117 2.105h-.342c-.045-.365-.104-.659-.175-.884-.072-.225-.175-.397-.308-.518-.13-.123-.299-.206-.508-.249-.208-.042-.47-.063-.786-.063h-.395v6.313h1.074V133h-3.101v-.391h1.074v-6.313h-.371c-.211 0-.398.008-.561.024-.163.017-.306.048-.43.093-.12.046-.224.109-.312.191-.088.081-.163.185-.225.312s-.116.28-.161.459c-.042.179-.08.391-.112.635h-.342l.141-2.105zm8.631 6.704V133h-2.378v-.391h.928l2.539-6.777h.386l2.383 6.777h.966V133h-3.002v-.391h1.015l-.732-2.085H600.3l-.776 2.085h.976zm.982-5.234l-1.031 2.754h2.017l-.967-2.754h-.019zm7.508-1.47c.517 0 .953.039 1.308.117.355.079.641.189.859.332.219.144.375.318.469.523.095.202.142.426.142.674 0 .215-.034.418-.103.61-.065.192-.164.366-.298.523-.133.156-.301.291-.502.405-.199.111-.433.195-.704.254v.019c.225.052.409.129.552.23.147.101.264.224.352.371.091.146.161.314.21.503.052.185.097.39.136.615.039.231.074.443.103.635.032.189.075.353.127.493.052.137.122.244.21.322.091.075.216.113.376.113.029 0 .07-.002.122-.005.055-.004.115-.01.181-.02v.376c-.056.013-.116.025-.181.034-.065.01-.132.017-.2.02-.065.006-.131.01-.196.01-.061.003-.117.004-.166.004-.283 0-.506-.029-.669-.087-.159-.062-.283-.157-.371-.284-.084-.127-.145-.286-.18-.478-.036-.192-.07-.42-.103-.684-.049-.384-.098-.706-.146-.967-.049-.26-.118-.468-.205-.625-.088-.159-.207-.271-.357-.336-.15-.069-.353-.103-.61-.103h-.918v3.11h1.025V133h-2.954v-.391h.977v-6.313h-.977v-.391h2.691zm-.762 3.203h.649c.352 0 .645-.029.879-.087.238-.059.428-.15.571-.274.147-.127.249-.286.308-.478.062-.196.093-.43.093-.704 0-.227-.025-.421-.073-.581-.049-.162-.14-.294-.274-.395-.13-.101-.312-.174-.547-.22-.231-.049-.532-.073-.903-.073h-.703v2.812z"/>
    </g>
    <g clip-path="url(#prefix__clip3)">
        <path fill="#476BB5" d="M642.85 48h71.662v94H642.85V48z"/>
        <path fill="#fff" d="M660.671 129.284c.325.049.602.126.83.23.231.101.418.226.561.376.147.149.253.319.318.507.065.189.098.393.098.611 0 .254-.046.501-.137.742-.091.238-.246.449-.464.635-.218.185-.506.335-.864.449-.358.111-.806.166-1.343.166h-3.052v-.391h.977v-6.313h-.977v-.391h2.93c.495 0 .913.043 1.255.127.342.085.618.202.83.352.211.15.363.325.454.527.094.202.142.42.142.654 0 .189-.03.372-.088.547-.059.173-.152.334-.279.484-.123.149-.285.281-.483.395-.195.114-.431.205-.708.274v.019zm-2.124 3.325h1.045c.342 0 .628-.026.859-.078.235-.055.422-.145.562-.268.143-.124.245-.285.307-.484.062-.202.093-.451.093-.747 0-.267-.029-.495-.088-.683-.055-.192-.161-.35-.317-.474-.153-.124-.366-.215-.64-.273-.27-.059-.622-.088-1.055-.088h-.766v3.095zm0-3.486h.576c.387 0 .713-.024.977-.073.263-.049.475-.132.634-.249.16-.117.274-.272.342-.464.069-.195.103-.438.103-.728 0-.221-.023-.413-.069-.576-.045-.166-.13-.303-.254-.41-.123-.111-.296-.192-.517-.244-.218-.055-.503-.083-.855-.083h-.937v2.827zm5.882.396c0-.583.078-1.107.234-1.573.16-.465.381-.861.664-1.186.283-.329.62-.581 1.011-.757.394-.176.825-.264 1.294-.264.462 0 .882.087 1.26.259.38.169.706.412.976.728.27.315.479.698.625 1.147.15.449.225.952.225 1.509 0 .547-.073 1.053-.22 1.518-.143.463-.352.861-.625 1.197-.273.335-.609.597-1.006.786-.394.189-.84.283-1.338.283-.468 0-.893-.085-1.274-.254-.381-.169-.706-.412-.977-.727-.27-.316-.48-.699-.63-1.148-.146-.452-.219-.959-.219-1.518zm1.059-.03c0 .449.023.843.069 1.182.048.335.115.625.2.869.088.241.194.441.317.601.124.159.262.286.415.38.153.095.319.162.498.201.179.035.368.053.567.053.198 0 .387-.018.566-.053.182-.039.352-.106.508-.201.156-.097.298-.227.425-.39s.234-.368.322-.615c.091-.251.161-.547.21-.889.049-.345.073-.747.073-1.206 0-.449-.024-.842-.073-1.177-.046-.338-.112-.63-.2-.874-.085-.244-.189-.446-.313-.605-.123-.16-.262-.287-.415-.381-.15-.095-.314-.16-.493-.196-.179-.039-.368-.058-.566-.058-.199 0-.389.019-.572.058-.182.04-.351.106-.507.201-.157.094-.298.224-.425.39-.127.163-.236.368-.327.616-.088.247-.157.543-.205.888-.049.345-.074.747-.074 1.206zm9.647-3.584c.517 0 .954.039 1.308.117.355.079.642.189.86.332.218.144.374.318.468.523.095.202.142.426.142.674 0 .215-.034.418-.102.61-.066.192-.165.366-.298.523-.134.156-.301.291-.503.405-.199.111-.433.195-.703.254v.019c.224.052.408.129.551.23.147.101.264.224.352.371.091.146.161.314.21.503.052.185.098.39.137.615.039.231.073.443.102.635.033.189.075.353.127.493.052.137.122.244.21.322.091.075.217.113.376.113.029 0 .07-.002.122-.005.055-.004.116-.01.181-.02v.376c-.056.013-.116.025-.181.034-.065.01-.132.017-.2.02-.065.006-.13.01-.195.01-.062.003-.118.004-.166.004-.284 0-.507-.029-.669-.087-.16-.062-.284-.157-.371-.284-.085-.127-.145-.286-.181-.478-.036-.192-.07-.42-.103-.684-.048-.384-.097-.706-.146-.967-.049-.26-.117-.468-.205-.625-.088-.159-.207-.271-.357-.336-.149-.069-.353-.103-.61-.103h-.918v3.11h1.025V133h-2.954v-.391h.977v-6.313h-.977v-.391h2.691zm-.762 3.203h.649c.352 0 .645-.029.879-.087.238-.059.428-.15.572-.274.146-.127.249-.286.307-.478.062-.196.093-.43.093-.704 0-.227-.024-.421-.073-.581-.049-.162-.14-.294-.274-.395-.13-.101-.312-.174-.547-.22-.231-.049-.532-.073-.903-.073h-.703v2.812zm8.231-3.203c.517 0 .953.039 1.308.117.355.079.641.189.859.332.219.144.375.318.469.523.095.202.142.426.142.674 0 .215-.034.418-.103.61-.065.192-.164.366-.298.523-.133.156-.301.291-.502.405-.199.111-.433.195-.704.254v.019c.225.052.409.129.552.23.147.101.264.224.352.371.091.146.161.314.21.503.052.185.097.39.136.615.039.231.074.443.103.635.032.189.075.353.127.493.052.137.122.244.21.322.091.075.216.113.376.113.029 0 .07-.002.122-.005.055-.004.115-.01.181-.02v.376c-.056.013-.116.025-.181.034-.065.01-.132.017-.2.02-.065.006-.131.01-.196.01-.061.003-.117.004-.166.004-.283 0-.506-.029-.669-.087-.159-.062-.283-.157-.371-.284-.084-.127-.145-.286-.18-.478-.036-.192-.07-.42-.103-.684-.049-.384-.098-.706-.146-.967-.049-.26-.118-.468-.205-.625-.088-.159-.207-.271-.357-.336-.15-.069-.353-.103-.61-.103h-.918v3.11h1.025V133h-2.954v-.391h.977v-6.313h-.977v-.391h2.691zm-.762 3.203h.649c.352 0 .645-.029.879-.087.238-.059.428-.15.571-.274.147-.127.249-.286.308-.478.062-.196.093-.43.093-.704 0-.227-.025-.421-.073-.581-.049-.162-.14-.294-.274-.395-.13-.101-.312-.174-.547-.22-.231-.049-.532-.073-.903-.073h-.703v2.812zm7.356 3.501V133h-2.378v-.391h.928l2.539-6.777h.386l2.383 6.777h.966V133h-3.002v-.391h1.015l-.732-2.085h-2.305l-.776 2.085h.976zm.982-5.234l-1.031 2.754h2.017l-.967-2.754h-.019zm7.508-1.47c.517 0 .953.039 1.308.117.355.079.641.189.859.332.219.144.375.318.469.523.095.202.142.426.142.674 0 .215-.034.418-.103.61-.065.192-.164.366-.298.523-.133.156-.301.291-.503.405-.198.111-.432.195-.703.254v.019c.225.052.409.129.552.23.147.101.264.224.352.371.091.146.161.314.21.503.052.185.097.39.136.615.039.231.074.443.103.635.032.189.075.353.127.493.052.137.122.244.21.322.091.075.216.113.376.113.029 0 .07-.002.122-.005.055-.004.115-.01.181-.02v.376c-.056.013-.116.025-.181.034-.065.01-.132.017-.2.02-.065.006-.131.01-.196.01-.061.003-.117.004-.166.004-.283 0-.506-.029-.669-.087-.159-.062-.283-.157-.371-.284-.084-.127-.145-.286-.18-.478-.036-.192-.07-.42-.103-.684-.049-.384-.098-.706-.146-.967-.049-.26-.118-.468-.205-.625-.088-.159-.207-.271-.357-.336-.15-.069-.353-.103-.61-.103h-.918v3.11h1.025V133h-2.954v-.391h.977v-6.313h-.977v-.391h2.691zm-.762 3.203h.649c.352 0 .645-.029.879-.087.238-.059.428-.15.571-.274.147-.127.249-.286.308-.478.062-.196.093-.43.093-.704 0-.227-.025-.421-.073-.581-.049-.162-.14-.294-.274-.395-.13-.101-.312-.174-.547-.22-.231-.049-.532-.073-.903-.073h-.703v2.812z"/>
    </g>
    <g clip-path="url(#prefix__clip4)">
        <path fill="#476BB5" d="M737.143 48h71.662v94h-71.662V48z"/>
        <path fill="#fff" d="M740.002 132.609V133h-2.378v-.391h.928l2.539-6.777h.386l2.382 6.777h.967V133h-3.003v-.391h1.016l-.732-2.085h-2.305l-.776 2.085h.976zm.982-5.234l-1.031 2.754h2.017l-.967-2.754h-.019zm10.315 3.501l-.068 1.934c-.157.055-.326.105-.508.151-.179.042-.362.078-.547.107-.186.033-.37.057-.552.074-.179.016-.347.024-.503.024-.498 0-.947-.085-1.347-.254-.398-.169-.736-.41-1.016-.723-.277-.315-.49-.698-.64-1.147-.146-.449-.219-.955-.219-1.519 0-.576.078-1.097.234-1.562.156-.466.379-.863.669-1.191.29-.332.64-.586 1.05-.762.413-.179.874-.269 1.382-.269.143 0 .294.008.454.025.159.013.32.034.483.063.166.026.329.059.488.098.163.039.319.083.469.132l.059 1.782h-.342c-.029-.355-.095-.643-.195-.864-.098-.225-.222-.399-.372-.523-.149-.124-.319-.208-.507-.254-.189-.045-.389-.068-.601-.068-.215 0-.418.019-.61.058-.192.04-.371.108-.537.206-.163.097-.311.227-.445.39-.13.163-.241.37-.332.62-.091.251-.163.549-.215.894-.048.342-.073.74-.073 1.196 0 .453.025.848.073 1.187.049.335.118.625.205.869.092.244.201.446.328.605.13.157.273.282.429.376.16.091.332.155.518.191.185.035.381.053.586.053.247 0 .475-.027.683-.083.212-.058.398-.159.557-.302.163-.144.296-.337.4-.581.108-.245.181-.555.22-.933h.342zm1.922-4.971h5.722l.118 2.105h-.342c-.046-.365-.104-.659-.176-.884-.072-.225-.174-.397-.308-.518-.13-.123-.299-.206-.507-.249-.209-.042-.471-.063-.786-.063h-.396v6.313h1.074V133h-3.1v-.391h1.074v-6.313h-.371c-.212 0-.399.008-.562.024-.163.017-.306.048-.429.093-.121.046-.225.109-.313.191-.088.081-.163.185-.225.312-.061.127-.115.28-.161.459-.042.179-.079.391-.112.635h-.342l.142-2.105zm9.109 4.8c0 .28.012.544.034.791.026.247.093.464.201.65.11.185.276.333.498.444.224.107.535.161.932.161.404 0 .729-.055.977-.166.247-.114.438-.269.571-.464.137-.198.228-.431.274-.698.045-.27.068-.562.068-.874v-4.253h-.977v-.391h2.388v.391h-.972v4.199c0 .436-.035.82-.107 1.152-.072.332-.2.611-.386.835-.185.225-.436.396-.752.513-.316.114-.718.171-1.206.171-.436 0-.812-.047-1.128-.142-.316-.094-.574-.24-.776-.439-.202-.199-.352-.451-.449-.757-.095-.309-.142-.675-.142-1.099v-4.433h-.977v-.391h2.906v.391h-.977v4.409zm7.899 1.904V133h-2.378v-.391h.927l2.54-6.777h.385l2.383 6.777h.967V133h-3.003v-.391h1.016l-.733-2.085h-2.305l-.776 2.085h.977zm.981-5.234l-1.03 2.754h2.016l-.966-2.754h-.02zm7.894 5.234c.254 0 .477-.009.669-.029.192-.019.359-.055.503-.107.146-.056.271-.131.375-.225.105-.098.194-.223.269-.376.075-.153.138-.338.19-.557.056-.221.105-.483.147-.786h.342l-.108 2.471h-5.464v-.391h.977v-6.313h-.977v-.391h2.906v.391h-.977v6.313h1.148zm5.833-6.313v6.313h.976V133h-2.905v-.391h.976v-6.313h-.976v-.391h2.905v.391h-.976zm2.542 6.704v-.303l3.979-6.401h-1.665c-.211 0-.399.008-.561.024-.163.017-.306.048-.43.093-.121.046-.225.109-.313.191-.088.081-.162.185-.224.312s-.116.28-.161.459c-.043.179-.08.391-.113.635h-.341l.141-2.105h4.859v.303l-4.048 6.401h1.704c.254 0 .477-.009.669-.029.192-.019.359-.055.503-.107.143-.052.265-.126.366-.22.104-.094.194-.217.268-.366.075-.15.139-.332.191-.547.052-.215.101-.469.146-.762h.342l-.098 2.422h-5.214zm8.787-.391V133h-2.378v-.391h.928l2.539-6.777h.385l2.383 6.777h.967V133h-3.003v-.391h1.016l-.733-2.085h-2.304l-.777 2.085h.977zm.981-5.234l-1.03 2.754h2.017l-.967-2.754h-.02zm7.508-1.47c.518 0 .954.039 1.309.117.354.079.641.189.859.332.218.144.374.318.469.523.094.202.141.426.141.674 0 .215-.034.418-.102.61-.065.192-.165.366-.298.523-.134.156-.301.291-.503.405-.199.111-.433.195-.703.254v.019c.224.052.408.129.552.23.146.101.263.224.351.371.091.146.161.314.21.503.052.185.098.39.137.615.039.231.073.443.102.635.033.189.075.353.127.493.052.137.122.244.21.322.091.075.217.113.376.113.03 0 .07-.002.122-.005.056-.004.116-.01.181-.02v.376c-.055.013-.116.025-.181.034-.065.01-.131.017-.2.02-.065.006-.13.01-.195.01-.062.003-.117.004-.166.004-.283 0-.506-.029-.669-.087-.16-.062-.283-.157-.371-.284-.085-.127-.145-.286-.181-.478-.036-.192-.07-.42-.102-.684-.049-.384-.098-.706-.147-.967-.049-.26-.117-.468-.205-.625-.088-.159-.207-.271-.356-.336-.15-.069-.354-.103-.611-.103h-.918v3.11h1.026V133h-2.954v-.391h.976v-6.313h-.976v-.391h2.69zm-.762 3.203h.65c.351 0 .644-.029.879-.087.237-.059.428-.15.571-.274.146-.127.249-.286.308-.478.061-.196.092-.43.092-.704 0-.227-.024-.421-.073-.581-.049-.162-.14-.294-.273-.395-.131-.101-.313-.174-.547-.22-.231-.049-.532-.073-.904-.073h-.703v2.812z"/>
    </g>
    <path fill="url(#prefix__pattern2)" d="M654.165 55H699.4259999999999V100H654.165z"/>
    <path fill="url(#prefix__pattern3)" d="M568.358 57H610.79V100H568.358z"/>
    <path fill="url(#prefix__pattern4)" d="M748.458 59H790.89V100H748.458z"/>
    <path fill="url(#prefix__pattern5)" d="M76 8H270.74V183H76z"/>
    <path fill="url(#prefix__pattern6)" d="M220.252 84H281.559V175H220.252z"/>
    <defs>
        <pattern id="prefix__pattern0" width="1" height="1" patternContentUnits="objectBoundingBox">
            <use transform="matrix(.03333 0 0 .04444 0 -.167)" xlink:href="#prefix__image0"/>
        </pattern>
        <pattern id="prefix__pattern1" width="1" height="1" patternContentUnits="objectBoundingBox">
            <use transform="matrix(.03125 0 0 .04167 0 -.167)" xlink:href="#prefix__image1"/>
        </pattern>
        <pattern id="prefix__pattern2" width="1" height="1" patternContentUnits="objectBoundingBox">
            <use transform="matrix(.03846 0 0 .03868 0 -.003)" xlink:href="#prefix__image2"/>
        </pattern>
        <pattern id="prefix__pattern3" width="1" height="1" patternContentUnits="objectBoundingBox">
            <use transform="matrix(.03898 0 0 .03846 -.007 0)" xlink:href="#prefix__image3"/>
        </pattern>
        <pattern id="prefix__pattern4" width="1" height="1" patternContentUnits="objectBoundingBox">
            <use transform="matrix(.04167 0 0 .04312 0 -.017)" xlink:href="#prefix__image4"/>
        </pattern>
        <pattern id="prefix__pattern5" width="1" height="1" patternContentUnits="objectBoundingBox">
            <use transform="matrix(.01 0 0 .01113 0 -.056)" xlink:href="#prefix__image5"/>
        </pattern>
        <pattern id="prefix__pattern6" width="1" height="1" patternContentUnits="objectBoundingBox">
            <use transform="matrix(.03092 0 0 .02083 -.242 0)" xlink:href="#prefix__image6"/>
        </pattern>
        <clipPath id="prefix__clip0">
            <path fill="#fff" d="M376 48h71.663v94H376V48z"/>
        </clipPath>
        <clipPath id="prefix__clip1">
            <path fill="#fff" d="M462.75 48h71.662v94H462.75V48z"/>
        </clipPath>
        <clipPath id="prefix__clip2">
            <path fill="#fff" d="M556.1 48h71.663v94H556.1V48z"/>
        </clipPath>
        <clipPath id="prefix__clip3">
            <path fill="#fff" d="M642.85 48h71.662v94H642.85V48z"/>
        </clipPath>
        <clipPath id="prefix__clip4">
            <path fill="#fff" d="M737.143 48h71.662v94h-71.662V48z"/>
        </clipPath>
    </defs>
</svg>
