<svg xmlns="http://www.w3.org/2000/svg" width="376" height="841" fill="none" viewBox="0 0 376 841">
    <path fill="#F5F5F5" d="M0 0H376V841H0z"/>
    <path fill="#0047FF" d="M122.861 396.177l-.123 3.48c-.281.1-.586.191-.914.273-.322.076-.65.14-.984.193-.334.059-.665.103-.993.132-.323.029-.624.044-.906.044-.896 0-1.705-.153-2.425-.457-.715-.305-1.325-.738-1.828-1.301-.499-.568-.882-1.257-1.152-2.065-.264-.809-.395-1.72-.395-2.734 0-1.037.14-1.974.421-2.812.282-.838.683-1.553 1.205-2.145.521-.597 1.151-1.055 1.889-1.371.744-.322 1.573-.483 2.488-.483.257 0 .53.014.817.044.287.023.577.061.87.114.299.047.592.105.879.176.293.07.574.149.844.237l.105 3.208h-.615c-.053-.639-.17-1.157-.352-1.556-.175-.404-.398-.717-.668-.94-.269-.223-.574-.375-.914-.457-.339-.082-.7-.123-1.081-.123-.386 0-.753.035-1.098.105-.346.071-.668.194-.967.369-.293.176-.56.411-.8.704-.234.292-.434.665-.598 1.116-.164.451-.293.987-.386 1.608-.088.615-.132 1.333-.132 2.153 0 .815.044 1.527.132 2.136.088.604.211 1.125.369 1.565.164.439.36.802.589 1.089.234.282.492.507.773.677.287.164.598.279.932.343.334.064.685.097 1.054.097.446 0 .856-.05 1.231-.15.381-.105.715-.287 1.002-.545.293-.257.533-.606.721-1.046.193-.439.325-.999.395-1.678h.615zm15.5-2.444c0-1.048.141-1.992.422-2.83.287-.838.686-1.549 1.196-2.135.509-.592 1.116-1.046 1.819-1.363.709-.316 1.485-.474 2.329-.474.832 0 1.588.155 2.268.465.685.305 1.271.742 1.757 1.31.487.568.862 1.257 1.125 2.065.27.809.405 1.714.405 2.716 0 .985-.132 1.896-.396 2.734-.258.832-.633 1.55-1.125 2.153-.492.604-1.096 1.075-1.81 1.415-.709.34-1.512.51-2.409.51-.843 0-1.608-.153-2.294-.457-.685-.305-1.271-.741-1.757-1.31-.487-.568-.865-1.257-1.134-2.065-.264-.815-.396-1.726-.396-2.734zm1.908-.052c0 .808.041 1.517.123 2.127.087.603.208 1.125.36 1.564.158.434.349.794.571 1.081.223.287.472.516.747.686.276.17.575.29.897.36.322.064.662.097 1.019.097.358 0 .698-.033 1.02-.097.328-.07.633-.19.914-.36.281-.176.536-.41.765-.703.228-.293.421-.663.58-1.108.164-.451.29-.984.378-1.599.087-.622.131-1.345.131-2.171 0-.809-.044-1.515-.131-2.119-.082-.609-.203-1.133-.361-1.573-.152-.439-.34-.803-.562-1.09-.223-.287-.472-.515-.747-.685-.27-.17-.566-.287-.888-.352-.322-.07-.662-.105-1.02-.105-.357 0-.7.035-1.028.105-.328.071-.633.191-.914.361-.281.17-.536.404-.765.703-.228.293-.424.662-.588 1.107-.159.445-.282.979-.37 1.6-.088.621-.131 1.344-.131 2.171zm35.231 6.451h-.703l-7.603-11.786-.044.008v10.943h1.582V400h-4.13v-.703h1.757v-11.364h-1.757v-.704h3.928l6.135 9.51.044-.009v-8.797h-1.758v-.704h4.307v.704H175.5v12.199zm16.273-12.903h10.301l.211 3.789h-.615c-.082-.657-.188-1.187-.316-1.591-.129-.405-.314-.715-.554-.932-.235-.223-.539-.372-.914-.448-.375-.076-.847-.114-1.415-.114h-.712v11.364h1.933V400h-5.581v-.703h1.934v-11.364h-.668c-.381 0-.718.014-1.011.044-.293.029-.551.085-.773.167-.217.082-.405.196-.563.342-.158.147-.293.334-.404.563-.111.228-.208.504-.29.826-.076.322-.144.703-.202 1.143h-.615l.254-3.789zm27.436 12.068V400h-4.28v-.703h1.67l4.57-12.199h.694l4.289 12.199h1.741V400h-5.406v-.703h1.828l-1.318-3.753h-4.148l-1.398 3.753h1.758zm1.767-9.422l-1.855 4.957h3.63l-1.74-4.957h-.035zm30.467 6.302l-.123 3.48c-.281.1-.586.191-.914.273-.322.076-.65.14-.984.193-.334.059-.665.103-.993.132-.323.029-.624.044-.906.044-.896 0-1.705-.153-2.425-.457-.715-.305-1.325-.738-1.828-1.301-.499-.568-.882-1.257-1.152-2.065-.264-.809-.395-1.72-.395-2.734 0-1.037.14-1.974.422-2.812.281-.838.682-1.553 1.204-2.145.521-.597 1.151-1.055 1.889-1.371.744-.322 1.574-.483 2.488-.483.257 0 .53.014.817.044.287.023.577.061.87.114.299.047.592.105.879.176.293.07.574.149.844.237l.105 3.208h-.615c-.053-.639-.17-1.157-.352-1.556-.175-.404-.398-.717-.668-.94-.269-.223-.574-.375-.914-.457-.339-.082-.7-.123-1.081-.123-.386 0-.753.035-1.098.105-.346.071-.668.194-.967.369-.293.176-.56.411-.8.704-.234.292-.434.665-.598 1.116-.164.451-.293.987-.386 1.608-.088.615-.132 1.333-.132 2.153 0 .815.044 1.527.132 2.136.088.604.211 1.125.369 1.565.164.439.36.802.589 1.089.234.282.492.507.773.677.287.164.598.279.932.343.334.064.685.097 1.054.097.446 0 .856-.05 1.231-.15.381-.105.715-.287 1.002-.545.293-.257.533-.606.721-1.046.193-.439.325-.999.395-1.678h.615zm15.36-8.948h10.301l.21 3.789h-.615c-.082-.657-.187-1.187-.316-1.591-.129-.405-.314-.715-.554-.932-.234-.223-.539-.372-.914-.448-.375-.076-.847-.114-1.415-.114h-.712v11.364h1.934V400h-5.581v-.703h1.933v-11.364h-.668c-.381 0-.718.014-1.01.044-.293.029-.551.085-.774.167-.217.082-.404.196-.562.342-.159.147-.293.334-.405.563-.111.228-.208.504-.29.826-.076.322-.143.703-.202 1.143h-.615l.255-3.789zm25.396 6.504c0-1.048.141-1.992.422-2.83.287-.838.686-1.549 1.195-2.135.51-.592 1.117-1.046 1.82-1.363.709-.316 1.485-.474 2.329-.474.832 0 1.588.155 2.267.465.686.305 1.272.742 1.758 1.31.487.568.862 1.257 1.125 2.065.27.809.405 1.714.405 2.716 0 .985-.132 1.896-.396 2.734-.258.832-.633 1.55-1.125 2.153-.492.604-1.096 1.075-1.811 1.415-.709.34-1.511.51-2.408.51-.843 0-1.608-.153-2.294-.457-.685-.305-1.271-.741-1.757-1.31-.487-.568-.865-1.257-1.134-2.065-.264-.815-.396-1.726-.396-2.734zm1.907-.052c0 .808.041 1.517.123 2.127.088.603.209 1.125.361 1.564.158.434.348.794.571 1.081.223.287.472.516.747.686.276.17.574.29.897.36.322.064.662.097 1.019.097.358 0 .697-.033 1.02-.097.328-.07.633-.19.914-.36.281-.176.536-.41.764-.703.229-.293.422-.663.581-1.108.164-.451.29-.984.377-1.599.088-.622.132-1.345.132-2.171 0-.809-.044-1.515-.132-2.119-.082-.609-.202-1.133-.36-1.573-.152-.439-.34-.803-.562-1.09-.223-.287-.472-.515-.747-.685-.27-.17-.566-.287-.888-.352-.322-.07-.662-.105-1.02-.105-.357 0-.7.035-1.028.105-.328.071-.633.191-.914.361-.281.17-.536.404-.765.703-.228.293-.425.662-.589 1.107-.158.445-.281.979-.369 1.6-.088.621-.132 1.344-.132 2.171zm24.826 2.496h.615c.064.668.193 1.224.387 1.67.193.445.43.799.712 1.063.287.264.612.451.975.563.369.105.759.158 1.169.158.492 0 .911-.062 1.257-.185.351-.123.639-.293.861-.509.229-.223.393-.487.492-.791.106-.311.159-.651.159-1.02 0-.457-.077-.832-.229-1.125-.152-.299-.366-.551-.642-.756-.269-.211-.594-.392-.975-.545-.381-.152-.8-.31-1.257-.474-.457-.164-.894-.337-1.31-.519-.41-.182-.773-.407-1.089-.677-.317-.269-.569-.597-.756-.984-.182-.393-.273-.879-.273-1.459 0-.545.088-1.043.264-1.494.176-.451.437-.835.782-1.152.346-.322.774-.571 1.283-.747.516-.175 1.114-.263 1.793-.263.27 0 .548.014.835.044.287.023.572.061.853.114.287.053.568.117.844.193.275.071.536.15.782.238l.105 3.19h-.615c-.053-.633-.17-1.148-.351-1.547-.182-.398-.405-.709-.668-.932-.258-.228-.548-.383-.871-.465-.316-.088-.641-.132-.975-.132-.445 0-.832.055-1.16.167-.328.105-.601.261-.818.466-.216.199-.381.445-.492.738-.105.287-.158.612-.158.975 0 .434.076.794.228 1.082.153.287.367.536.642.747.281.205.615.389 1.002.553.393.159.823.326 1.292.501.428.164.847.34 1.257.528.416.181.785.413 1.107.694.328.275.592.618.791 1.028.199.405.299.908.299 1.512 0 .586-.102 1.107-.308 1.564-.199.457-.489.841-.87 1.152-.375.31-.835.548-1.38.712-.544.164-1.16.246-1.845.246-.299 0-.61-.015-.932-.044-.316-.029-.633-.073-.949-.132-.311-.059-.615-.126-.914-.202-.299-.076-.577-.164-.835-.264l-.114-3.48z"/>
    <path fill="#000" d="M142.031 130.902h.821c.086.891.257 1.633.515 2.227.258.594.574 1.066.949 1.418.383.351.817.601 1.301.75.492.141 1.012.211 1.559.211.656 0 1.215-.082 1.676-.246.468-.164.851-.391 1.148-.68.305-.297.523-.648.656-1.055.141-.414.211-.867.211-1.359 0-.609-.101-1.109-.305-1.5-.203-.398-.488-.734-.855-1.008-.359-.281-.793-.523-1.301-.726-.508-.204-1.066-.414-1.676-.633-.609-.219-1.191-.449-1.746-.692-.546-.242-1.031-.543-1.453-.902-.422-.359-.758-.797-1.008-1.312-.242-.524-.363-1.172-.363-1.946 0-.726.117-1.39.352-1.992.234-.602.582-1.113 1.043-1.535.461-.43 1.031-.762 1.711-.996.687-.235 1.484-.352 2.39-.352.36 0 .731.02 1.114.059.382.031.761.082 1.136.152.383.07.758.156 1.125.258.367.094.715.199 1.043.316l.141 4.254h-.82c-.071-.843-.227-1.531-.469-2.062-.242-.531-.539-.946-.891-1.242-.344-.305-.73-.512-1.16-.621-.422-.118-.855-.176-1.301-.176-.594 0-1.109.074-1.547.222-.437.141-.8.348-1.089.621-.29.266-.508.594-.657.985-.14.383-.211.816-.211 1.301 0 .578.102 1.058.305 1.441s.488.715.855.996c.375.274.821.52 1.336.738.524.211 1.098.434 1.723.668.57.219 1.129.454 1.676.704.555.242 1.047.55 1.476.925.438.367.789.825 1.055 1.371.266.539.399 1.211.399 2.016 0 .781-.137 1.477-.411 2.086-.265.609-.652 1.121-1.16 1.535-.5.414-1.113.731-1.84.949-.726.219-1.546.328-2.461.328-.398 0-.812-.019-1.242-.058-.422-.039-.843-.098-1.265-.176-.414-.078-.821-.168-1.219-.269-.399-.102-.77-.219-1.113-.352l-.153-4.641zm18.293-10.992v15.152h2.344V136h-6.973v-.938h2.344V119.91h-2.344v-.937h6.973v.937h-2.344zm5.168 10.992h.82c.086.891.258 1.633.516 2.227.258.594.574 1.066.949 1.418.383.351.817.601 1.301.75.492.141 1.012.211 1.559.211.656 0 1.215-.082 1.675-.246.469-.164.852-.391 1.149-.68.305-.297.523-.648.656-1.055.141-.414.211-.867.211-1.359 0-.609-.101-1.109-.305-1.5-.203-.398-.488-.734-.855-1.008-.359-.281-.793-.523-1.301-.726-.508-.204-1.066-.414-1.676-.633-.609-.219-1.191-.449-1.746-.692-.547-.242-1.031-.543-1.453-.902-.422-.359-.758-.797-1.008-1.312-.242-.524-.363-1.172-.363-1.946 0-.726.117-1.39.352-1.992.234-.602.582-1.113 1.043-1.535.461-.43 1.031-.762 1.711-.996.687-.235 1.484-.352 2.39-.352.36 0 .731.02 1.113.059.383.031.762.082 1.137.152.383.07.758.156 1.125.258.367.094.715.199 1.043.316l.141 4.254h-.821c-.07-.843-.226-1.531-.468-2.062-.242-.531-.539-.946-.891-1.242-.344-.305-.73-.512-1.16-.621-.422-.118-.856-.176-1.301-.176-.594 0-1.109.074-1.547.222-.437.141-.8.348-1.09.621-.289.266-.507.594-.656.985-.14.383-.211.816-.211 1.301 0 .578.102 1.058.305 1.441s.488.715.855.996c.375.274.821.52 1.336.738.524.211 1.098.434 1.723.668.57.219 1.129.454 1.676.704.554.242 1.047.55 1.476.925.438.367.789.825 1.055 1.371.266.539.398 1.211.398 2.016 0 .781-.136 1.477-.41 2.086-.265.609-.652 1.121-1.16 1.535-.5.414-1.113.731-1.84.949-.726.219-1.547.328-2.461.328-.398 0-.812-.019-1.242-.058-.422-.039-.844-.098-1.265-.176-.415-.078-.821-.168-1.219-.269-.399-.102-.77-.219-1.113-.352l-.153-4.641zm13.711-11.929h13.735l.281 5.05h-.821c-.109-.875-.25-1.582-.421-2.121-.172-.539-.418-.953-.739-1.242-.312-.297-.718-.496-1.218-.598-.5-.101-1.129-.152-1.887-.152h-.949v15.152h2.578V136h-7.442v-.938h2.578V119.91h-.89c-.508 0-.957.02-1.348.059-.39.039-.734.113-1.031.222-.289.11-.539.262-.75.457-.211.196-.391.446-.539.75-.149.305-.278.672-.387 1.102-.101.43-.191.938-.269 1.523h-.821l.34-5.05zm20.988 7.722h1.536c.523 0 .961-.019 1.312-.058.352-.039.633-.149.844-.328.219-.188.383-.473.492-.856.109-.391.187-.937.234-1.641h.832v6.938h-.832c-.039-.711-.105-1.27-.199-1.676-.094-.414-.246-.726-.457-.937-.211-.211-.496-.344-.855-.399-.352-.054-.809-.082-1.371-.082h-1.536v7.406h3.106c.609 0 1.144-.023 1.605-.07.461-.047.864-.133 1.207-.258.344-.125.637-.3.879-.527.25-.227.465-.519.645-.879.179-.359.332-.797.457-1.312.125-.516.242-1.125.351-1.828h.821l-.235 5.812h-13.465v-.938h2.344V119.91h-2.344v-.937h13.172l.235 4.699h-.821c-.117-.781-.261-1.414-.433-1.899-.172-.492-.414-.875-.727-1.148-.304-.281-.707-.469-1.207-.563-.492-.101-1.117-.152-1.875-.152h-3.715v6.785zm28.313 8.367v-14.847h-.059l-6.093 15.961h-.926l-5.719-15.938h-.059v14.824h2.11V136h-5.508v-.938h2.344V119.91h-2.344v-.937h5.426l4.886 13.558h.047l5.203-13.558h5.321v.937h-2.344v15.152h2.344V136h-6.738v-.938h2.109zm11.379 0V136h-5.707v-.938h2.226l6.094-16.265h.926l5.719 16.265h2.32V136h-7.207v-.938h2.437l-1.757-5.003h-5.532l-1.863 5.003h2.344zm2.355-12.562l-2.472 6.609h4.839l-2.32-6.609h-.047zm17.473 13.5v-.938h2.344V119.91h-2.344v-.937h7.078c1.578 0 2.899.195 3.961.586 1.07.39 1.93.949 2.578 1.675.649.719 1.11 1.59 1.383 2.614.281 1.023.422 2.168.422 3.433 0 .735-.051 1.461-.153 2.18-.093.711-.261 1.391-.503 2.039-.243.641-.571 1.238-.985 1.793-.406.547-.926 1.023-1.558 1.43-.633.398-1.387.711-2.262.937-.875.227-1.895.34-3.059.34h-6.902zm4.629-.938h2.121c1.203 0 2.199-.117 2.988-.351.797-.234 1.426-.645 1.887-1.231.461-.585.785-1.378.973-2.378.187-1 .281-2.266.281-3.797 0-.836-.031-1.602-.094-2.297-.055-.696-.16-1.317-.316-1.863-.157-.547-.375-1.024-.657-1.43-.273-.406-.628-.742-1.066-1.008-.43-.266-.953-.465-1.57-.598-.617-.132-1.344-.199-2.18-.199h-2.367v15.152zm18.515-8.367h1.536c.523 0 .961-.019 1.312-.058.352-.039.633-.149.844-.328.219-.188.383-.473.492-.856.109-.391.188-.937.234-1.641h.832v6.938h-.832c-.039-.711-.105-1.27-.199-1.676-.094-.414-.246-.726-.457-.937-.211-.211-.496-.344-.855-.399-.352-.054-.809-.082-1.371-.082h-1.536v7.406h3.106c.609 0 1.144-.023 1.605-.07.461-.047.864-.133 1.207-.258.344-.125.637-.3.879-.527.25-.227.465-.519.645-.879.18-.359.332-.797.457-1.312.125-.516.242-1.125.351-1.828h.821l-.235 5.812h-13.464v-.938h2.343V119.91h-2.343v-.937h13.171l.235 4.699h-.821c-.117-.781-.261-1.414-.433-1.899-.172-.492-.414-.875-.727-1.148-.304-.281-.707-.469-1.207-.563-.492-.101-1.117-.152-1.875-.152h-3.715v6.785zM169.77 191.062V192h-5.708v-.938h2.227l6.094-16.265h.926l5.718 16.265h2.321V192h-7.207v-.938h2.437l-1.758-5.003h-5.531l-1.863 5.003h2.344zm2.355-12.562l-2.473 6.609h4.84l-2.32-6.609h-.047zm23.602 12.809c-.375.187-.782.351-1.219.492-.438.14-.879.254-1.324.34-.446.086-.887.148-1.325.187-.437.047-.843.07-1.218.07-1.219 0-2.309-.203-3.27-.609-.961-.406-1.777-.984-2.449-1.734-.664-.758-1.172-1.676-1.524-2.754-.351-1.078-.527-2.293-.527-3.645 0-1.383.191-2.633.574-3.75.383-1.117.93-2.07 1.641-2.859.711-.797 1.566-1.406 2.566-1.828 1.008-.43 2.133-.645 3.375-.645.711 0 1.469.071 2.274.211.804.133 1.57.317 2.297.551l.14 4.277h-.82c-.07-.851-.227-1.543-.469-2.074-.242-.539-.543-.957-.902-1.254-.359-.297-.77-.5-1.231-.609-.453-.11-.933-.164-1.441-.164-.531 0-1.035.047-1.512.14-.468.094-.906.258-1.312.493-.406.234-.774.546-1.102.937-.32.391-.597.887-.832 1.488-.226.602-.402 1.317-.527 2.145-.117.82-.176 1.777-.176 2.871 0 1.078.055 2.023.164 2.836.117.805.281 1.496.492 2.074.219.578.481 1.059.785 1.442.313.382.661.683 1.043.902.383.219.801.375 1.254.469.453.086.934.129 1.442.129.5 0 .988-.02 1.465-.059.484-.047.945-.152 1.382-.317v-5.191h-2.578v-.937h6.973v.937h-2.109v5.438zm9.257-8.614h1.536c.523 0 .96-.019 1.312-.058.352-.039.633-.149.844-.328.219-.188.383-.473.492-.856.109-.391.187-.937.234-1.641h.832v6.938h-.832c-.039-.711-.105-1.27-.199-1.676-.094-.414-.246-.726-.457-.937-.211-.211-.496-.344-.855-.399-.352-.054-.809-.082-1.371-.082h-1.536v7.406h3.106c.609 0 1.144-.023 1.605-.07.461-.047.864-.133 1.207-.258.344-.125.637-.3.879-.527.25-.227.465-.519.645-.879.179-.359.332-.797.457-1.312.125-.516.242-1.125.351-1.828h.821L213.82 192h-13.465v-.938h2.344V175.91h-2.344v-.937h13.172l.235 4.699h-.821c-.117-.781-.261-1.414-.433-1.899-.172-.492-.414-.875-.727-1.148-.304-.281-.707-.469-1.207-.563-.492-.101-1.117-.152-1.875-.152h-3.715v6.785zm26.59 9.481h-.937L220.5 176.461l-.059.012v14.589h2.11V192h-5.508v-.938h2.344V175.91h-2.344v-.937h5.238l8.18 12.679.059-.011V175.91h-2.344v-.937h5.742v.937h-2.344v16.266zm4.383-.176v-.938h2.344V175.91h-2.344v-.937h7.078c1.578 0 2.899.195 3.961.586 1.07.39 1.93.949 2.578 1.675.649.719 1.11 1.59 1.383 2.614.281 1.023.422 2.168.422 3.433 0 .735-.051 1.461-.152 2.18-.094.711-.262 1.391-.504 2.039-.243.641-.571 1.238-.985 1.793-.406.547-.926 1.023-1.558 1.43-.633.398-1.387.711-2.262.937-.875.227-1.895.34-3.059.34h-6.902zm4.629-.938h2.121c1.203 0 2.199-.117 2.988-.351.797-.234 1.426-.645 1.887-1.231.461-.585.785-1.378.973-2.378.187-1 .281-2.266.281-3.797 0-.836-.031-1.602-.094-2.297-.054-.696-.16-1.317-.316-1.863-.156-.547-.375-1.024-.656-1.43-.274-.406-.629-.742-1.067-1.008-.43-.266-.953-.465-1.57-.598-.617-.132-1.344-.199-2.18-.199h-2.367v15.152zm17.777 0V192h-5.707v-.938h2.227l6.094-16.265h.925l5.719 16.265h2.32V192h-7.207v-.938h2.438l-1.758-5.003h-5.531l-1.863 5.003h2.343zm2.356-12.562l-2.473 6.609h4.84l-2.32-6.609h-.047zm-127.957 60.195h1.535c.523 0 .961-.019 1.312-.058.352-.039.633-.149.844-.328.219-.188.383-.473.492-.856.11-.391.188-.937.235-1.641h.832v6.938h-.832c-.039-.711-.106-1.27-.2-1.676-.093-.414-.246-.726-.457-.937-.211-.211-.496-.344-.855-.399-.352-.054-.809-.082-1.371-.082h-1.535v7.406h3.105c.61 0 1.145-.023 1.606-.07.461-.047.863-.133 1.207-.258.343-.125.636-.3.879-.527.25-.227.464-.519.644-.879.18-.359.332-.797.457-1.312.125-.516.242-1.125.352-1.828h.82l-.234 5.812h-13.465v-.938h2.344V231.91h-2.344v-.937h13.172l.234 4.699h-.82c-.117-.781-.262-1.414-.434-1.899-.172-.492-.414-.875-.726-1.148-.305-.281-.707-.469-1.207-.563-.493-.101-1.118-.152-1.875-.152h-3.715v6.785zm19.558 8.367c.61 0 1.145-.023 1.606-.07.461-.047.863-.133 1.207-.258.351-.132.652-.312.902-.539.25-.234.465-.535.645-.902.179-.367.332-.813.457-1.336.133-.531.25-1.16.351-1.887h.821l-.258 5.93h-13.113v-.938h2.343V231.91h-2.343v-.937h6.972v.937h-2.344v15.152h2.754zm12.95-8.367h1.535c.523 0 .961-.019 1.312-.058.352-.039.633-.149.844-.328.219-.188.383-.473.492-.856.109-.391.188-.937.235-1.641h.832v6.938h-.832c-.04-.711-.106-1.27-.2-1.676-.093-.414-.246-.726-.457-.937-.211-.211-.496-.344-.855-.399-.352-.054-.809-.082-1.371-.082h-1.535v7.406h3.105c.609 0 1.145-.023 1.605-.07.461-.047.864-.133 1.208-.258.343-.125.636-.3.878-.527.25-.227.465-.519.645-.879.18-.359.332-.797.457-1.312.125-.516.242-1.125.352-1.828h.82l-.235 5.812h-13.464v-.938h2.343V231.91h-2.343v-.937h13.171l.235 4.699h-.82c-.118-.781-.262-1.414-.434-1.899-.172-.492-.414-.875-.727-1.148-.304-.281-.707-.469-1.207-.563-.492-.101-1.117-.152-1.875-.152h-3.714v6.785zm25.957 4.207l-.165 4.641c-.374.133-.781.254-1.218.363-.43.102-.867.188-1.313.258-.445.078-.886.137-1.324.176-.43.039-.832.058-1.207.058-1.195 0-2.273-.203-3.234-.609-.954-.406-1.766-.984-2.438-1.734-.664-.758-1.176-1.676-1.535-2.754-.352-1.078-.527-2.293-.527-3.645 0-1.383.187-2.633.562-3.75.375-1.117.91-2.07 1.606-2.859.695-.797 1.535-1.406 2.519-1.828.992-.43 2.098-.645 3.317-.645.343 0 .707.02 1.089.059.383.031.77.082 1.161.152.398.063.789.141 1.171.235.391.093.766.199 1.125.316l.141 4.277h-.82c-.071-.851-.227-1.543-.469-2.074-.234-.539-.531-.957-.891-1.254-.359-.297-.765-.5-1.218-.609-.454-.11-.934-.164-1.442-.164-.515 0-1.004.047-1.465.14-.461.094-.89.258-1.289.493-.39.234-.746.546-1.066.937-.313.391-.578.887-.797 1.488-.219.602-.391 1.317-.516 2.145-.117.82-.175 1.777-.175 2.871 0 1.086.058 2.035.175 2.848.118.804.282 1.5.493 2.086.218.585.48 1.07.785 1.453.312.375.656.675 1.031.902.383.219.797.371 1.242.457.445.086.914.129 1.406.129.594 0 1.141-.066 1.641-.199.508-.141.953-.383 1.336-.727.391-.344.711-.808.961-1.394.258-.586.433-1.332.527-2.239h.821zm3.562-11.929h13.734l.282 5.05h-.821c-.109-.875-.25-1.582-.422-2.121-.171-.539-.417-.953-.738-1.242-.312-.297-.719-.496-1.219-.598-.5-.101-1.128-.152-1.886-.152h-.949v15.152h2.578V248h-7.442v-.938h2.578V231.91h-.89c-.508 0-.957.02-1.348.059-.391.039-.734.113-1.031.222-.289.11-.539.262-.75.457-.211.196-.391.446-.539.75-.149.305-.278.672-.387 1.102-.101.43-.191.938-.269 1.523h-.821l.34-5.05zm22.816 0c1.243 0 2.29.093 3.141.281.852.187 1.539.453 2.063.797.523.344.898.761 1.125 1.254.226.484.339 1.023.339 1.617 0 .516-.082 1.004-.246 1.465-.156.461-.394.879-.715 1.254-.32.375-.722.699-1.207.972-.476.266-1.039.469-1.687.61v.047c.539.125.98.308 1.324.55.352.242.633.539.844.891.219.351.387.754.504 1.207.125.445.234.937.328 1.477.094.554.176 1.062.246 1.523.078.453.18.848.305 1.184.125.328.293.586.504.773.218.18.519.27.902.27.07 0 .168-.004.293-.012.133-.008.277-.024.434-.047v.902c-.133.032-.278.059-.434.082-.156.024-.316.039-.48.047-.157.016-.313.024-.469.024-.149.007-.281.011-.399.011-.679 0-1.215-.07-1.605-.211-.383-.148-.68-.375-.891-.679-.203-.305-.347-.688-.433-1.149-.086-.461-.168-1.008-.246-1.64-.118-.922-.235-1.696-.352-2.321-.117-.625-.281-1.125-.492-1.5-.211-.382-.496-.652-.856-.808-.359-.164-.847-.246-1.465-.246h-2.203v7.464h2.461V248h-7.09v-.938h2.344V231.91h-2.344v-.937h6.457zm-1.828 7.687h1.559c.844 0 1.547-.07 2.109-.211.571-.14 1.028-.359 1.371-.656.352-.305.598-.688.739-1.148.148-.469.222-1.032.222-1.688 0-.547-.058-1.012-.175-1.395-.118-.39-.336-.707-.657-.949-.312-.242-.75-.418-1.312-.527-.555-.117-1.278-.176-2.168-.176h-1.688v6.75zm12.832.985c0-1.399.188-2.657.563-3.774.383-1.117.914-2.066 1.594-2.848.679-.789 1.488-1.394 2.425-1.816.946-.422 1.981-.633 3.106-.633 1.109 0 2.117.207 3.023.621.914.407 1.696.989 2.344 1.746.648.758 1.148 1.676 1.5 2.754.359 1.078.539 2.285.539 3.621 0 1.313-.176 2.528-.527 3.645-.344 1.109-.844 2.066-1.5 2.871-.656.805-1.461 1.434-2.414 1.887-.946.453-2.016.679-3.211.679-1.125 0-2.145-.203-3.059-.609-.914-.406-1.695-.988-2.344-1.746-.648-.758-1.152-1.676-1.511-2.754-.352-1.086-.528-2.301-.528-3.644zm2.543-.071c0 1.078.055 2.024.164 2.836.118.805.278 1.5.481 2.086.211.578.465 1.059.762 1.442.296.382.629.687.996.914.367.226.765.386 1.195.48.43.086.883.129 1.359.129.477 0 .93-.043 1.36-.129.437-.094.843-.254 1.219-.48.374-.235.714-.547 1.019-.938.305-.391.563-.883.773-1.476.219-.602.387-1.313.504-2.133.118-.828.176-1.793.176-2.895 0-1.078-.058-2.019-.176-2.824-.109-.813-.269-1.512-.48-2.098-.203-.586-.453-1.07-.75-1.453s-.629-.687-.996-.914c-.36-.226-.754-.383-1.184-.469-.429-.093-.883-.14-1.359-.14-.477 0-.934.047-1.371.14-.438.094-.844.254-1.219.481-.375.226-.715.539-1.02.937-.304.391-.566.883-.785 1.477-.211.594-.375 1.305-.492 2.133-.117.828-.176 1.793-.176 2.894zm30.059 8.602h-.938l-10.136-15.715-.059.012v14.589h2.11V248h-5.508v-.938h2.343V231.91h-2.343v-.937h5.238l8.18 12.679.058-.011V231.91h-2.344v-.937h5.743v.937h-2.344v16.266zm9.012-16.266v15.152h2.343V248h-6.972v-.938h2.344V231.91h-2.344v-.937h6.972v.937h-2.343zm18.41 10.992l-.164 4.641c-.375.133-.781.254-1.219.363-.43.102-.867.188-1.312.258-.446.078-.887.137-1.325.176-.429.039-.832.058-1.207.058-1.195 0-2.273-.203-3.234-.609-.953-.406-1.766-.984-2.438-1.734-.664-.758-1.175-1.676-1.535-2.754-.351-1.078-.527-2.293-.527-3.645 0-1.383.187-2.633.562-3.75.375-1.117.911-2.07 1.606-2.859.695-.797 1.535-1.406 2.519-1.828.993-.43 2.098-.645 3.317-.645.344 0 .707.02 1.09.059.382.031.769.082 1.16.152.398.063.789.141 1.172.235.39.093.765.199 1.125.316l.14 4.277h-.82c-.07-.851-.227-1.543-.469-2.074-.234-.539-.531-.957-.89-1.254-.36-.297-.766-.5-1.219-.609-.453-.11-.934-.164-1.442-.164-.515 0-1.003.047-1.464.14-.461.094-.891.258-1.289.493-.391.234-.747.546-1.067.937-.312.391-.578.887-.797 1.488-.218.602-.39 1.317-.515 2.145-.118.82-.176 1.777-.176 2.871 0 1.086.058 2.035.176 2.848.117.804.281 1.5.492 2.086.219.585.48 1.07.785 1.453.312.375.656.675 1.031.902.383.219.797.371 1.242.457.446.086.914.129 1.407.129.593 0 1.14-.066 1.64-.199.508-.141.953-.383 1.336-.727.391-.344.711-.808.961-1.394.258-.586.434-1.332.527-2.239h.821zm7.64 4.16V248h-5.707v-.938h2.227l6.094-16.265h.925l5.719 16.265h2.321V248h-7.207v-.938h2.437l-1.758-5.003h-5.531l-1.863 5.003h2.343zm2.356-12.562l-2.473 6.609h4.84l-2.32-6.609h-.047z"/>
    <path fill="#C4C4C4" d="M92 444H352V708H92z"/>
</svg>
